<svg width="48" height="48" viewBox="0 0 48 48" fill="none" xmlns="http://www.w3.org/2000/svg">
<g clip-path="url(#clip0)">
<rect width="48" height="48" rx="24" fill="#FFE682"/>
<rect x="-46" y="10.2622" width="102.151" height="48" transform="rotate(-33.4203 -46 10.2622)" fill="white" fill-opacity="0.2"/>
<path d="M5.12793 25.5835C5.12793 22.6782 5.77165 20.3825 7.05908 18.6963C8.35791 17.0101 10.1353 16.167 12.3911 16.167C14.3735 16.167 15.9515 16.9246 17.125 18.4399L17.4497 16.5088H21.7905V42.1094H16.8345V33.4106C15.6951 34.6981 14.2026 35.3418 12.3569 35.3418C10.158 35.3418 8.40348 34.4873 7.09326 32.7783C5.78304 31.0693 5.12793 28.6711 5.12793 25.5835ZM10.0669 25.9424C10.0669 27.7083 10.3745 29.0527 10.9897 29.9756C11.6164 30.8984 12.4937 31.3599 13.6216 31.3599C15.1369 31.3599 16.2078 30.756 16.8345 29.5483V21.9092C16.2192 20.7471 15.1597 20.166 13.6558 20.166C12.5164 20.166 11.6335 20.6274 11.0068 21.5503C10.3802 22.4731 10.0669 23.9372 10.0669 25.9424Z" fill="#4E2754"/>
<path d="M33.2197 23.9087C30.4056 23.0998 28.3548 22.1086 27.0674 20.9351C25.7913 19.7502 25.1533 18.2918 25.1533 16.5601C25.1533 14.6004 25.9338 12.9826 27.4946 11.7065C29.0669 10.4191 31.1063 9.77539 33.6128 9.77539C35.3218 9.77539 36.8428 10.1058 38.1758 10.7666C39.5202 11.4274 40.557 12.3389 41.2861 13.501C42.0267 14.6631 42.397 15.9334 42.397 17.312H39.0986C39.0986 15.8081 38.6201 14.6289 37.6631 13.7744C36.7061 12.9085 35.356 12.4756 33.6128 12.4756C31.995 12.4756 30.7303 12.8345 29.8188 13.5522C28.9188 14.2586 28.4688 15.2441 28.4688 16.5088C28.4688 17.5228 28.896 18.383 29.7505 19.0894C30.6164 19.7843 32.0804 20.4224 34.1426 21.0034C36.2161 21.5845 37.834 22.2282 38.9961 22.9346C40.1696 23.6296 41.0355 24.4442 41.5938 25.3784C42.1634 26.3127 42.4482 27.4121 42.4482 28.6768C42.4482 30.6934 41.6621 32.3112 40.0898 33.5303C38.5176 34.738 36.4155 35.3418 33.7837 35.3418C32.0747 35.3418 30.4797 35.0171 28.9985 34.3677C27.5174 33.7069 26.3724 32.8068 25.5635 31.6675C24.766 30.5282 24.3672 29.235 24.3672 27.7881H27.6655C27.6655 29.292 28.2181 30.4826 29.3232 31.3599C30.4398 32.2257 31.9266 32.6587 33.7837 32.6587C35.5155 32.6587 36.8428 32.3055 37.7656 31.5991C38.6885 30.8927 39.1499 29.93 39.1499 28.7109C39.1499 27.4919 38.7227 26.5519 37.8682 25.8911C37.0137 25.2189 35.4642 24.5581 33.2197 23.9087Z" fill="#4E2754"/>
<line x1="32" y1="7" x2="32" y2="37" stroke="#4E2754" stroke-width="2"/>
<line x1="36" y1="7" x2="36" y2="37" stroke="#4E2754" stroke-width="2"/>
</g>
<defs>
<clipPath id="clip0">
<rect width="48" height="48" rx="24" fill="white"/>
</clipPath>
</defs>
</svg>