<?xml version="1.0" standalone="no"?>
<!DOCTYPE svg PUBLIC "-//W3C//DTD SVG 20010904//EN"
 "http://www.w3.org/TR/2001/REC-SVG-20010904/DTD/svg10.dtd">
<svg version="1.0" xmlns="http://www.w3.org/2000/svg"
 width="256.000000pt" height="256.000000pt" viewBox="0 0 256.000000 256.000000"
 preserveAspectRatio="xMidYMid meet">
<metadata>
Created by potrace 1.14, written by Peter Selinger 2001-2017
</metadata>
<g transform="translate(0.000000,256.000000) scale(0.100000,-0.100000)"
fill="#000000" stroke="none">
<path d="M1198 2545 c-96 -36 -158 -127 -164 -238 -1 -34 -3 -67 -3 -73 -1 -5
-27 -18 -59 -28 -90 -26 -162 -71 -162 -100 0 -29 -55 -79 -79 -72 -23 7 -43
-11 -83 -74 -68 -109 -91 -187 -94 -314 -6 -268 154 -495 411 -582 75 -26 93
-28 275 -31 117 -2 206 -7 223 -14 48 -20 71 -88 46 -142 -18 -40 -60 -57
-138 -57 -59 0 -72 -3 -81 -19 -13 -25 -79 -24 -98 1 -12 16 -31 18 -170 18
-177 0 -214 -7 -274 -53 -116 -88 -127 -262 -25 -367 51 -53 109 -73 209 -75
48 0 90 -4 94 -8 4 -4 9 -36 10 -72 5 -106 62 -189 157 -228 57 -24 153 -17
209 16 89 52 128 126 128 245 0 48 3 62 15 63 35 3 72 17 141 51 109 53 195
137 258 252 51 93 65 146 70 266 10 239 -139 475 -359 567 -92 39 -163 49
-354 51 -167 1 -185 3 -211 22 -36 25 -51 73 -37 115 25 73 35 75 369 75 184
0 308 4 333 11 146 41 221 210 152 345 -52 103 -117 137 -267 138 l-105 2 -5
75 c-8 109 -54 180 -148 228 -36 19 -142 23 -184 6z"/>
</g>
</svg>
